<svg id="Capa_1" enable-background="new 0 0 512 512" height="512" viewBox="0 0 512 512" width="512" xmlns="http://www.w3.org/2000/svg"><g><path d="m233.5 418.275c0 4.142 3.357 7.5 7.5 7.5h30c4.143 0 7.5-3.358 7.5-7.5s-3.357-7.5-7.5-7.5h-30c-4.143 0-7.5 3.358-7.5 7.5z"/><path d="m201.051 276.709v-12c0-4.142-3.357-7.5-7.5-7.5s-7.5 3.358-7.5 7.5v12c0 4.142 3.357 7.5 7.5 7.5s7.5-3.358 7.5-7.5z"/><path d="m325.948 276.709v-12c0-4.142-3.357-7.5-7.5-7.5s-7.5 3.358-7.5 7.5v12c0 4.142 3.357 7.5 7.5 7.5s7.5-3.358 7.5-7.5z"/><path d="m441.858 312.301c-19.371 12.777-41.833 19.7-65.095 20.123 7.654-9.134 14.283-19.132 19.715-29.812 1.877-3.692.406-8.208-3.286-10.085-3.69-1.878-8.206-.406-10.085 3.285-10.871 21.376-27.043 39.73-46.859 53.267-5.959-.683-18.5-1.337-34.827-8.044.544-13.298-4.362-22.376-9.086-29.004-2.463-3.456-7.282-4.207-10.66-1.637-3.22 2.45-3.909 7.005-1.569 10.306 4.02 5.667 7.744 13.058 5.914 23.759l-6.388 37.341c-2.733-.646-5.538-1.002-8.36-1.024-3.875-.03-7.317 2.822-7.728 6.676-.48 4.511 3.042 8.323 7.456 8.323 3.8 0 7.557.967 10.864 2.796 8.406 4.648 13.082 14.207 11.236 23.947-2.029 10.705-11.713 18.258-22.609 18.258h-28.981c-10.896 0-20.58-7.552-22.609-18.258-1.846-9.74 2.83-19.299 11.235-23.947 3.231-1.786 6.89-2.75 10.599-2.794 3.698-.044 7.023-2.522 7.651-6.167.815-4.731-2.805-8.835-7.385-8.835-2.914 0-5.811.358-8.632 1.025l-6.388-37.341c-1.829-10.693 1.876-18.053 5.924-23.762 2.339-3.299 1.641-7.854-1.577-10.302-3.377-2.569-8.199-1.824-10.663 1.631-4.702 6.593-9.63 15.698-9.085 29.01-16.367 6.729-28.792 7.348-34.849 8.044-19.8-13.532-35.969-31.891-46.836-53.266-2.018-3.971-7.088-5.373-10.901-2.806-3.192 2.149-4.077 6.46-2.326 9.886 5.405 10.577 11.983 20.485 19.569 29.542-66.506-1.211-120.237-55.68-120.237-122.471 0-30.209 11.09-59.227 31.228-81.706 2.765-3.085 2.504-7.827-.582-10.591s-7.828-2.501-10.59.582c-22.607 25.235-35.056 57.807-35.056 91.715 0 79.918 68.451 143.767 149.079 137.008 3.885 3.596 7.95 7.005 12.188 10.202-8.01 10.674-4.726 26.947 8.838 32.4 12.669 5.095 26.859 7.242 41.331 5.644-6.066 7.781-9 17.856-7.585 28.186 2.56 18.698 19.013 32.37 37.885 32.37h28.528c18.872 0 35.325-13.672 37.885-32.37 1.415-10.331-1.519-20.406-7.585-28.187 13.698 1.512 27.941-.26 41.331-5.645 13.419-5.395 16.951-21.607 8.83-32.412 4.235-3.194 8.297-6.599 12.18-10.191 30.926 2.597 61.477-5.173 87.213-22.148 3.457-2.281 4.411-6.933 2.131-10.39s-6.932-4.411-10.391-2.131zm-266.158 63.357c-5.665-2.278-4.383-10.104.326-11.474 2.867-.682 17.448-.598 36.761-7.892l3.917 22.899c-13.637 2.905-27.973 1.706-41.004-3.533zm160.6 0c-13.031 5.24-27.367 6.44-41.004 3.534l3.919-22.911c19.216 7.215 33.98 7.269 36.684 7.884 4.785 1.382 6.095 9.203.401 11.493z"/><path d="m315.778 85.613c-11.205-4.605-22.797-7.867-34.674-9.769.62-2.473-.028-5.2-1.962-7.134-2.93-2.929-7.678-2.929-10.607 0l-5.035 5.035v-10.02c0-4.142-3.357-7.5-7.5-7.5s-7.5 3.358-7.5 7.5v10.021l-5.035-5.035c-2.93-2.929-7.678-2.929-10.607 0-1.934 1.934-2.583 4.66-1.962 7.134-11.878 1.902-23.47 5.164-34.676 9.77-43.854-20.776-96.557-17.02-137.49 11.637-3.394 2.375-4.219 7.052-1.844 10.445 2.38 3.398 7.058 4.215 10.445 1.843 33.633-23.545 75.35-27.708 110.879-15.145-48.902 27.784-79.71 79.895-79.71 136.958 0 4.142 3.357 7.5 7.5 7.5s7.5-3.358 7.5-7.5c0-78.257 63.378-142.5 142.5-142.5 78.814 0 142.5 64.001 142.5 142.5 0 4.142 3.357 7.5 7.5 7.5s7.5-3.358 7.5-7.5c0-57.064-30.808-109.176-79.711-136.959 79.458-28.095 163.211 31.283 163.211 115.571.001 31.463-11.906 61.368-33.528 84.205-2.848 3.008-2.718 7.755.29 10.603 1.45 1.373 3.304 2.054 5.155 2.054 1.988 0 3.973-.786 5.447-2.344 24.271-25.635 37.637-59.202 37.636-94.518 0-100.796-105.483-167.339-196.222-124.352z"/><path d="m248.5 335.775h15c4.143 0 7.5-3.358 7.5-7.5s-3.357-7.5-7.5-7.5h-15c-4.143 0-7.5 3.358-7.5 7.5s3.357 7.5 7.5 7.5z"/><path d="m248.5 365.775h15c4.143 0 7.5-3.358 7.5-7.5s-3.357-7.5-7.5-7.5h-15c-4.143 0-7.5 3.358-7.5 7.5s3.357 7.5 7.5 7.5z"/></g></svg>